<?xml version="1.0" encoding="UTF-8"?>
<svg version="1.1" xmlns="http://www.w3.org/2000/svg" width="457" height="371">
<path d="M0 0 C150.81 0 301.62 0 457 0 C457 122.43 457 244.86 457 371 C306.19 371 155.38 371 0 371 C0 248.57 0 126.14 0 0 Z " fill="#FDFDFD" transform="translate(0,0)"/>
<path d="M0 0 C0.87527344 0.29519531 1.75054687 0.59039062 2.65234375 0.89453125 C13.22787997 4.82735221 22.30121811 11.38215534 30.4375 19.125 C32.93243133 21.34213436 33.82215826 21.96164198 37.1875 22.6875 C40.65887934 22.06151356 43.66813568 21.12689428 47 20 C54.50977663 17.58335908 63.38443108 15.81789127 70.98852539 18.77270508 C77.42056737 22.20750038 80.33020308 27.61638532 83.8125 33.8125 C85.02891717 35.89405551 86.24899397 37.97347658 87.47265625 40.05078125 C88.06836426 41.06736816 88.66407227 42.08395508 89.27783203 43.13134766 C91.61865719 47.03051063 94.13812268 50.77869849 96.75 54.5 C97.40802612 55.43996826 97.40802612 55.43996826 98.0793457 56.39892578 C98.94729847 57.6371038 99.81602125 58.87474244 100.68554688 60.11181641 C103.00240339 63.43993087 105.25183 66.81276358 107.5 70.1875 C108.11439941 71.10595703 108.11439941 71.10595703 108.74121094 72.04296875 C109.83702855 73.68899152 110.91899713 75.34421015 112 77 C112.51087158 77.71704102 113.02174316 78.43408203 113.5480957 79.17285156 C115.42898786 82.83532527 115.84018834 86.41087475 116.32421875 90.44140625 C118.12442448 103.72132641 120.79914273 116.82246068 123.41900635 129.96020508 C124.06786886 133.22072157 124.71018789 136.48252831 125.35351562 139.74414062 C127.41624161 150.17557759 129.49303682 160.60366947 131.66040039 171.01391602 C131.79641442 171.66770957 131.93242846 172.32150312 132.07256413 172.9951086 C132.71845511 176.09649528 133.36780728 179.19710092 134.02204895 182.29673767 C135.77210007 190.65368853 137.22762005 199.02456197 138.45703125 207.47265625 C138.90449302 210.78666438 138.90449302 210.78666438 139.55859375 213.125 C140.17480838 215.74254886 140.20935651 218.25164278 140.25 220.9375 C140.28867187 222.46697266 140.28867187 222.46697266 140.328125 224.02734375 C139.80333628 228.78167968 137.74562679 231.1613229 134.62109375 234.67578125 C129.89407298 238.38686265 123.83980959 238.50607374 118.0625 239.1875 C116.83370117 239.34766602 115.60490234 239.50783203 114.33886719 239.67285156 C102.92464188 241.11765296 91.47448594 242.1731917 80 243 C81.21171875 243.03738281 82.4234375 243.07476562 83.671875 243.11328125 C92.90532986 243.45519224 101.98516519 244.10824481 111.125 245.5 C111.98319336 245.63059814 112.84138672 245.76119629 113.72558594 245.89575195 C119.70737513 246.85368757 119.70737513 246.85368757 122 248 C122 248.66 122 249.32 122 250 C116.9585694 251.93795976 112.20855954 252.57642065 106.87890625 253.0546875 C105.99731339 253.13733856 105.11572052 253.21998962 104.20741272 253.30514526 C94.7949826 254.15715479 85.37937959 254.7286906 75.9375 255.125 C74.95765137 255.16636078 73.97780273 255.20772156 72.96826172 255.25033569 C-78.5578086 261.32397217 -78.5578086 261.32397217 -113 249 C-112.67 248.01 -112.34 247.02 -112 246 C-105.39017909 244.56281554 -98.86132939 243.53510883 -92.125 242.9375 C-91.21572754 242.85516113 -90.30645508 242.77282227 -89.36962891 242.68798828 C-70.90406104 241.07492622 -52.5305167 240.86393091 -34 241 C-34.1429248 240.41484619 -34.28584961 239.82969238 -34.43310547 239.22680664 C-35.45012633 234.89891655 -36.25099142 230.9101954 -36.125 226.4375 C-36.10695313 225.59058594 -36.08890625 224.74367188 -36.0703125 223.87109375 C-36.04710937 223.25363281 -36.02390625 222.63617188 -36 222 C-36.73541016 221.71946777 -37.47082031 221.43893555 -38.22851562 221.14990234 C-40.73648296 220.1093345 -42.99608561 218.95772226 -45.34375 217.6015625 C-46.57895386 216.89157104 -46.57895386 216.89157104 -47.83911133 216.16723633 C-49.15625122 215.40382935 -49.15625122 215.40382935 -50.5 214.625 C-52.38928324 213.53769147 -54.27860732 212.45045391 -56.16796875 211.36328125 C-57.13395996 210.80592285 -58.09995117 210.24856445 -59.09521484 209.67431641 C-62.78139535 207.5496042 -66.4734203 205.43525719 -70.16772461 203.32470703 C-71.92649425 202.31909278 -73.68382939 201.31096536 -75.43969727 200.30029297 C-79.48316325 197.9780605 -83.53637956 195.69688773 -87.6640625 193.52734375 C-95.60264188 189.32639035 -102.3586559 185.74863417 -105.78125 177.00390625 C-107.51505516 171.15231384 -108.03000464 165.37348895 -105.5625 159.6875 C-102.90149884 155.55643527 -99.68470135 151.83195113 -96.5390625 148.06640625 C-93.90135985 144.88087305 -91.35136937 141.63912846 -88.8125 138.375 C-84.04873025 132.26975269 -79.14131559 126.29200754 -74.20141602 120.32885742 C-70.48439924 115.83161899 -66.83566595 111.29002535 -63.25 106.6875 C-59.07893792 101.33456119 -54.79576839 96.09839848 -50.4296875 90.90234375 C-47.18482119 87.02624139 -43.99803287 83.10471907 -40.8125 79.1796875 C-39 77 -39 77 -37 75 C-37.3520616 71.29107196 -39.43540229 68.4517148 -41.3125 65.3125 C-48.32031899 52.42157371 -51.80670107 36.0974632 -48.15234375 21.6484375 C-44.75300264 12.54511724 -39.40498153 5.46040236 -30.6875 1 C-21.31636069 -3.23687303 -9.73679149 -3.60127904 0 0 Z " fill="#FDCA02" transform="translate(205,70)"/>
<path d="M0 0 C0.87527344 0.29519531 1.75054687 0.59039062 2.65234375 0.89453125 C13.22787997 4.82735221 22.30121811 11.38215534 30.4375 19.125 C32.93243133 21.34213436 33.82215826 21.96164198 37.1875 22.6875 C40.65887934 22.06151356 43.66813568 21.12689428 47 20 C54.50977663 17.58335908 63.38443108 15.81789127 70.98852539 18.77270508 C77.42056737 22.20750038 80.33020308 27.61638532 83.8125 33.8125 C85.02891717 35.89405551 86.24899397 37.97347658 87.47265625 40.05078125 C88.06836426 41.06736816 88.66407227 42.08395508 89.27783203 43.13134766 C91.61865719 47.03051063 94.13812268 50.77869849 96.75 54.5 C97.40802612 55.43996826 97.40802612 55.43996826 98.0793457 56.39892578 C98.94729847 57.6371038 99.81602125 58.87474244 100.68554688 60.11181641 C103.00240339 63.43993087 105.25183 66.81276358 107.5 70.1875 C108.11439941 71.10595703 108.11439941 71.10595703 108.74121094 72.04296875 C109.83702855 73.68899152 110.91899713 75.34421015 112 77 C112.51087158 77.71704102 113.02174316 78.43408203 113.5480957 79.17285156 C115.42898786 82.83532527 115.84018834 86.41087475 116.32421875 90.44140625 C118.12442448 103.72132641 120.79914273 116.82246068 123.41900635 129.96020508 C124.06786886 133.22072157 124.71018789 136.48252831 125.35351562 139.74414062 C127.41624161 150.17557759 129.49303682 160.60366947 131.66040039 171.01391602 C131.79641442 171.66770957 131.93242846 172.32150312 132.07256413 172.9951086 C132.71845511 176.09649528 133.36780728 179.19710092 134.02204895 182.29673767 C135.77210007 190.65368853 137.22762005 199.02456197 138.45703125 207.47265625 C138.90449302 210.78666438 138.90449302 210.78666438 139.55859375 213.125 C140.17480838 215.74254886 140.20935651 218.25164278 140.25 220.9375 C140.28867187 222.46697266 140.28867187 222.46697266 140.328125 224.02734375 C139.80333628 228.78167968 137.74562679 231.1613229 134.62109375 234.67578125 C129.89407298 238.38686265 123.83980959 238.50607374 118.0625 239.1875 C116.83370117 239.34766602 115.60490234 239.50783203 114.33886719 239.67285156 C102.92464188 241.11765296 91.47448594 242.1731917 80 243 C81.21171875 243.03738281 82.4234375 243.07476562 83.671875 243.11328125 C92.90532986 243.45519224 101.98516519 244.10824481 111.125 245.5 C111.98319336 245.63059814 112.84138672 245.76119629 113.72558594 245.89575195 C119.70737513 246.85368757 119.70737513 246.85368757 122 248 C122 248.66 122 249.32 122 250 C116.9585694 251.93795976 112.20855954 252.57642065 106.87890625 253.0546875 C105.99731339 253.13733856 105.11572052 253.21998962 104.20741272 253.30514526 C94.7949826 254.15715479 85.37937959 254.7286906 75.9375 255.125 C74.95765137 255.16636078 73.97780273 255.20772156 72.96826172 255.25033569 C-78.5578086 261.32397217 -78.5578086 261.32397217 -113 249 C-112.67 248.01 -112.34 247.02 -112 246 C-105.39017909 244.56281554 -98.86132939 243.53510883 -92.125 242.9375 C-91.21572754 242.85516113 -90.30645508 242.77282227 -89.36962891 242.68798828 C-70.90406104 241.07492622 -52.5305167 240.86393091 -34 241 C-34.1429248 240.41484619 -34.28584961 239.82969238 -34.43310547 239.22680664 C-35.45012633 234.89891655 -36.25099142 230.9101954 -36.125 226.4375 C-36.10695313 225.59058594 -36.08890625 224.74367188 -36.0703125 223.87109375 C-36.04710937 223.25363281 -36.02390625 222.63617188 -36 222 C-36.73541016 221.71946777 -37.47082031 221.43893555 -38.22851562 221.14990234 C-40.73648296 220.1093345 -42.99608561 218.95772226 -45.34375 217.6015625 C-46.57895386 216.89157104 -46.57895386 216.89157104 -47.83911133 216.16723633 C-49.15625122 215.40382935 -49.15625122 215.40382935 -50.5 214.625 C-52.38928324 213.53769147 -54.27860732 212.45045391 -56.16796875 211.36328125 C-57.13395996 210.80592285 -58.09995117 210.24856445 -59.09521484 209.67431641 C-62.78139535 207.5496042 -66.4734203 205.43525719 -70.16772461 203.32470703 C-71.92649425 202.31909278 -73.68382939 201.31096536 -75.43969727 200.30029297 C-79.48316325 197.9780605 -83.53637956 195.69688773 -87.6640625 193.52734375 C-95.60264188 189.32639035 -102.3586559 185.74863417 -105.78125 177.00390625 C-107.51505516 171.15231384 -108.03000464 165.37348895 -105.5625 159.6875 C-102.90149884 155.55643527 -99.68470135 151.83195113 -96.5390625 148.06640625 C-93.90135985 144.88087305 -91.35136937 141.63912846 -88.8125 138.375 C-84.04873025 132.26975269 -79.14131559 126.29200754 -74.20141602 120.32885742 C-70.48439924 115.83161899 -66.83566595 111.29002535 -63.25 106.6875 C-59.07893792 101.33456119 -54.79576839 96.09839848 -50.4296875 90.90234375 C-47.18482119 87.02624139 -43.99803287 83.10471907 -40.8125 79.1796875 C-39 77 -39 77 -37 75 C-37.3520616 71.29107196 -39.43540229 68.4517148 -41.3125 65.3125 C-48.32031899 52.42157371 -51.80670107 36.0974632 -48.15234375 21.6484375 C-44.75300264 12.54511724 -39.40498153 5.46040236 -30.6875 1 C-21.31636069 -3.23687303 -9.73679149 -3.60127904 0 0 Z M47 29 C44.0625 29.75 44.0625 29.75 42 30 C44.31159397 38.64822588 44.31159397 38.64822588 49.86328125 45.22265625 C51.24073761 45.86339396 52.63047432 46.47839407 54.03125 47.06640625 C57.5917691 48.75482701 60.2480946 51.4961892 62 55 C62.52779267 61.2117137 62.74403643 66.758349 59 72 C53.94814964 77.05185036 49.05334213 78.95288879 42 79.375 C37.57156219 79.22910186 34.37097373 77.85892709 31 75 C26.83328537 69.87173584 26.34795582 65.415471 26.51953125 58.87109375 C27.02596153 55.844864 27.73342561 54.43085479 29.625 52.0625 C30.40875 51.051875 31.1925 50.04125 32 49 C31.361344 46.53764211 31.361344 46.53764211 30 44 C29.60425781 43.10539062 29.20851562 42.21078125 28.80078125 41.2890625 C27.1068624 38.25690329 25.70561145 36.20234192 23 34 C16.44049075 32.96086982 8.19697111 33.55275321 2.59765625 37.51953125 C-3.47441928 43.14622227 -8.60886391 49.64581377 -13.7265625 56.12890625 C-16.49844722 59.62948231 -19.30861269 63.09769059 -22.125 66.5625 C-22.67478516 67.23901611 -23.22457031 67.91553223 -23.79101562 68.61254883 C-29.6438734 75.80514658 -35.54494865 82.95787534 -41.44433594 90.11230469 C-47.00739123 96.86270386 -52.5278299 103.64437834 -57.98046875 110.484375 C-60.07172388 113.08934271 -62.18956416 115.67080264 -64.3125 118.25 C-68.7459687 123.65424547 -73.06129262 129.14571123 -77.37109375 134.6484375 C-83.12694163 141.99518099 -88.99865893 149.24476995 -94.921875 156.45703125 C-95.60765625 157.29621094 -96.2934375 158.13539063 -97 159 C-97.73863281 159.84949219 -98.47726563 160.69898438 -99.23828125 161.57421875 C-101.50102751 164.68988489 -101.52959499 166.36684889 -101.3203125 170.078125 C-100.43656044 175.38063738 -97.08840654 177.91944341 -93 181 C-91.18608908 182.10151796 -89.34539345 183.1597733 -87.484375 184.1796875 C-85.87453735 185.06720703 -85.87453735 185.06720703 -84.23217773 185.97265625 C-82.50849976 186.91431641 -82.50849976 186.91431641 -80.75 187.875 C-79.53752332 188.54239049 -78.32537016 189.21036903 -77.11352539 189.87890625 C-74.62297202 191.25262258 -72.1314439 192.62454288 -69.63916016 193.99511719 C-64.22616186 196.97443774 -58.82967223 199.98317707 -53.4375 203 C-52.41817383 203.57024902 -51.39884766 204.14049805 -50.34863281 204.72802734 C-41.77803519 209.53668024 -33.26780637 214.4468273 -24.76538086 219.37475586 C-16.04034274 224.42325115 -7.25920373 229.36621558 1.5546875 234.2578125 C2.51632813 234.79277344 3.47796875 235.32773437 4.46875 235.87890625 C5.39526367 236.39283936 6.32177734 236.90677246 7.27636719 237.4362793 C10.00491547 239.00282212 12.64316306 240.67780394 15.296875 242.3671875 C21.21830538 245.9427571 26.24131447 245.89453191 33 245 C38.09620581 243.36193385 41.10405942 240.41271292 44 236 C46.02854702 231.76038294 47.69540654 227.38635946 49.375 223 C49.89232415 221.67541325 50.41082997 220.35128749 50.93041992 219.02758789 C52.04547516 216.18222017 53.15422146 213.33450757 54.25830078 210.48486328 C56.93359603 203.58561622 59.65422123 196.70419604 62.371521 189.82141113 C63.31890457 187.42127442 64.26517995 185.02070264 65.21142578 182.62011719 C73.91654466 160.55272969 82.76159471 138.53767688 92 116.6875 C92.44093994 115.64311768 92.88187988 114.59873535 93.33618164 113.52270508 C95.23924425 109.04172205 97.17289683 104.58425445 99.23046875 100.171875 C99.56498047 99.44524658 99.89949219 98.71861816 100.24414062 97.9699707 C101.09921244 96.12771583 101.97611376 94.295632 102.85546875 92.46484375 C104.56472507 87.29040569 105.17030516 82.82786494 103.04125977 77.68334961 C101.68941483 75.2115446 100.22610064 72.85998351 98.6875 70.5 C97.87478638 69.20231689 97.87478638 69.20231689 97.0456543 67.87841797 C95.38446854 65.23840115 93.69571977 62.61793581 92 60 C91.02284763 58.47173116 90.04625425 56.94310471 89.0703125 55.4140625 C87.26468139 52.59640428 85.44045982 49.79213847 83.6015625 46.99609375 C81.86334998 44.34748113 80.17457646 41.67637979 78.5234375 38.97265625 C78.12858154 38.33376465 77.73372559 37.69487305 77.3269043 37.03662109 C76.26579065 35.31455664 75.21640216 33.58528248 74.16796875 31.85546875 C71.08200437 27.79089224 68.11975086 25.37982361 63.03515625 24.46875 C56.33701643 24.53916408 52.54311644 25.26688077 47 29 Z " fill="#080704" transform="translate(205,70)"/>
<path d="M0 0 C0.66 0 1.32 0 2 0 C11.35120419 45.36510957 11.35120419 45.36510957 14.41479492 66.84765625 C15.37054552 73.46041713 16.63572347 79.83363001 18.33105469 86.29614258 C19.23897878 89.96594523 19.74589386 93.55696059 20.1875 97.3125 C20.42533203 99.25576172 20.42533203 99.25576172 20.66796875 101.23828125 C21.60023802 111.80034373 21.60023802 111.80034373 19.375 116.1875 C19.07335937 116.82042969 18.77171875 117.45335937 18.4609375 118.10546875 C14.60005063 123.1122338 9.94923363 124.49989029 3.97216797 125.31665039 C3.11510254 125.41840576 2.25803711 125.52016113 1.375 125.625 C-0.42718996 125.86508638 -2.22927422 126.10596759 -4.03125 126.34765625 C-5.32482422 126.51418701 -5.32482422 126.51418701 -6.64453125 126.68408203 C-9.48680197 127.0652904 -12.30344381 127.55129108 -15.125 128.0625 C-21.61778758 129.17237822 -28.15544461 129.84251509 -34.703125 130.53515625 C-38.80942265 130.97030402 -42.90407733 131.47642617 -47 132 C-46.42300613 128.02502446 -45.57605274 124.43533939 -44.19335938 120.66674805 C-43.82206909 119.64675217 -43.45077881 118.62675629 -43.0682373 117.57585144 C-42.66415649 116.48218765 -42.26007568 115.38852386 -41.84375 114.26171875 C-41.42258911 113.1087178 -41.00142822 111.95571686 -40.56750488 110.76777649 C-39.21657964 107.07253183 -37.85851284 103.37996107 -36.5 99.6875 C-35.17698431 96.0768708 -33.85545015 92.46570153 -32.53393555 88.85452271 C-31.65719956 86.45946862 -30.77975817 84.06467265 -29.90161133 81.6701355 C-26.54181381 72.50377559 -23.22298142 63.32314581 -19.92956543 54.13273621 C-17.19474739 46.50764017 -14.39919839 38.92871357 -11.3125 31.4375 C-7.11620781 21.1160409 -3.5967061 10.54145375 0 0 Z " fill="#FBBB03" transform="translate(315,173)"/>
<path d="M0 0 C3.98989895 3.72390569 5.74723177 6.31487844 6.5625 11.75 C6.35568671 18.53129898 3.00906361 24.37204438 0.19384766 30.40234375 C-2.14868467 35.49938751 -4.35053507 40.65777667 -6.5625 45.8125 C-7.06998779 46.99432861 -7.57747559 48.17615723 -8.1003418 49.39379883 C-16.1385936 68.19436023 -23.58537164 87.24501886 -31.0300293 106.28662109 C-32.80175567 110.81223018 -34.58689685 115.33251544 -36.37158203 119.85302734 C-37.59647669 122.96395791 -38.80767206 126.08001841 -40.01513672 129.19775391 C-41.86641423 133.97518122 -43.73908489 138.74382765 -45.62289429 143.5085144 C-46.36785532 145.40311936 -47.105804 147.30049821 -47.83633423 149.20071411 C-48.86708767 151.87851942 -49.92284477 154.54520944 -50.984375 157.2109375 C-51.28516464 158.00973831 -51.58595428 158.80853912 -51.89585876 159.63154602 C-54.12791153 165.13306688 -56.99966061 168.72842708 -62 172 C-68.09190277 174.03063426 -74.92920009 174.16644753 -80.95654297 171.87695312 C-83.8781003 170.28756048 -86.65357454 168.56952364 -89.4375 166.75 C-91.53202179 165.45406503 -93.62841884 164.1611566 -95.7265625 162.87109375 C-96.77231445 162.21866699 -97.81806641 161.56624023 -98.89550781 160.89404297 C-103.60589234 158.02024907 -108.44749508 155.41293266 -113.3125 152.8125 C-122.62527461 147.78928115 -131.79238414 142.54565099 -140.92773438 137.20800781 C-149.06142836 132.46654718 -157.26546113 127.84650992 -165.46264648 123.21606445 C-167.47819455 122.07730653 -169.49333537 120.93782749 -171.50805664 119.79760742 C-175.81447645 117.36078489 -180.12221349 114.92745603 -184.44921875 112.52734375 C-185.09246094 112.16769531 -185.73570312 111.80804688 -186.3984375 111.4375 C-188.04839667 110.51525208 -189.70178022 109.59913771 -191.35546875 108.68359375 C-194.70303663 106.55242424 -197.46927566 104.59217301 -198.75 100.75 C-198.8325 100.1725 -198.915 99.595 -199 99 C-195.38944909 99.76242216 -192.14165375 101.12473374 -188.75 102.5625 C-187.67234375 103.01753906 -186.5946875 103.47257812 -185.484375 103.94140625 C-184.25460938 104.46541016 -184.25460938 104.46541016 -183 105 C-183 105.66 -183 106.32 -183 107 C-181.49759766 107.38285156 -181.49759766 107.38285156 -179.96484375 107.7734375 C-175.92967456 108.92981472 -172.27774832 110.69500692 -168.5625 112.625 C-167.13806128 113.35033984 -165.713581 114.0755981 -164.2890625 114.80078125 C-163.57137695 115.16896973 -162.85369141 115.5371582 -162.11425781 115.91650391 C-158.89703769 117.56523634 -155.66908329 119.1921334 -152.4375 120.8125 C-151.79989746 121.13283203 -151.16229492 121.45316406 -150.50537109 121.78320312 C-143.49861265 125.28404305 -136.41952697 128.63471357 -129.33178711 131.96801758 C-124.5746787 134.22142856 -119.91817026 136.56833996 -115.3203125 139.1328125 C-110.88018709 141.58588989 -106.46630948 143.56617524 -101.6875 145.25 C-100.69266602 145.61351562 -100.69266602 145.61351562 -99.67773438 145.984375 C-97.79012993 146.67009902 -95.89520707 147.33557683 -94 148 C-92.94941406 148.37769531 -91.89882812 148.75539063 -90.81640625 149.14453125 C-84.64770894 151.01824098 -78.89662472 150.74300863 -72.9375 148.25 C-62.36779836 142.15255884 -56.70009499 129.33492275 -51.4375 118.8125 C-50.78621731 117.53152681 -50.13419156 116.25093115 -49.48144531 114.97070312 C-45.62913378 107.38570808 -41.8675218 99.75572203 -38.34545898 92.01098633 C-37.17209857 89.43263125 -35.98167068 86.97052192 -34.484375 84.5625 C-32.88501888 81.80150628 -31.87741699 79.06662878 -30.79931641 76.07470703 C-29.51204593 72.73346559 -27.84318624 69.6078266 -26.1875 66.4375 C-22.85060444 59.92363383 -20.01756877 53.34041652 -17.421875 46.5 C-16.3796998 43.93464565 -15.29726918 41.57239525 -14.03125 39.125 C-11.86414835 34.87690671 -10.28184313 30.5095586 -8.75 26 C-8.481875 25.22527344 -8.21375 24.45054687 -7.9375 23.65234375 C-7.28678233 21.76991049 -6.64267935 19.88519275 -6 18 C-5.34 18 -4.68 18 -4 18 C-3.87882813 17.11957031 -3.75765625 16.23914063 -3.6328125 15.33203125 C-3.38144531 13.58986328 -3.38144531 13.58986328 -3.125 11.8125 C-2.88136719 10.08966797 -2.88136719 10.08966797 -2.6328125 8.33203125 C-2.05939755 5.31275375 -1.25240957 2.79424152 0 0 Z " fill="#E9A901" transform="translate(303,142)"/>
<path d="M0 0 C1.95993224 7.24519691 1.00810905 14.52318278 -2.375 21.1875 C-4.61890427 25.64995369 -5.5743093 29.78299673 -6.25 34.6875 C-7.46039502 42.79787143 -10.04405191 50.01371303 -13.02709961 57.62841797 C-16.91439038 67.59380696 -20.38080477 77.68261705 -23.8125 87.8125 C-24.9019235 91.02748649 -25.9917452 94.24233717 -27.08203125 97.45703125 C-27.33664124 98.20955673 -27.59125122 98.96208221 -27.85357666 99.7374115 C-29.56354831 104.77355132 -31.35401906 109.77329594 -33.24487305 114.74487305 C-34.04797609 117.14327681 -34.55463905 119.51241563 -35 122 C-32.70024295 121.12878804 -32.70024295 121.12878804 -31.9296875 118.27734375 C-31.58164062 117.17519531 -31.23359375 116.07304687 -30.875 114.9375 C-30.52179688 113.83277344 -30.16859375 112.72804688 -29.8046875 111.58984375 C-29.53914063 110.73519531 -29.27359375 109.88054687 -29 109 C-28.34 109 -27.68 109 -27 109 C-26.505 107.515 -26.505 107.515 -26 106 C-25.36610352 105.90501221 -24.73220703 105.81002441 -24.07910156 105.7121582 C-2.16229633 102.74578649 -2.16229633 102.74578649 16 91 C16.33 90.34 16.66 89.68 17 89 C17.66 89 18.32 89 19 89 C19.495 87.515 19.495 87.515 20 86 C20.33885038 88.52019972 20.67120335 91.04098516 21 93.5625 C21.09539062 94.26697266 21.19078125 94.97144531 21.2890625 95.69726562 C22.90281008 108.20380939 22.90281008 108.20380939 20.375 113.1875 C20.07335937 113.82042969 19.77171875 114.45335937 19.4609375 115.10546875 C15.60005063 120.1122338 10.94923363 121.49989029 4.97216797 122.31665039 C4.11510254 122.41840576 3.25803711 122.52016113 2.375 122.625 C0.57281004 122.86508638 -1.22927422 123.10596759 -3.03125 123.34765625 C-4.32482422 123.51418701 -4.32482422 123.51418701 -5.64453125 123.68408203 C-8.48680197 124.0652904 -11.30344381 124.55129108 -14.125 125.0625 C-20.61778758 126.17237822 -27.15544461 126.84251509 -33.703125 127.53515625 C-37.80942265 127.97030402 -41.90407733 128.47642617 -46 129 C-45.42300613 125.02502446 -44.57605274 121.43533939 -43.19335938 117.66674805 C-42.82206909 116.64675217 -42.45077881 115.62675629 -42.0682373 114.57585144 C-41.66415649 113.48218765 -41.26007568 112.38852386 -40.84375 111.26171875 C-40.42258911 110.1087178 -40.00142822 108.95571686 -39.56750488 107.76777649 C-38.21657964 104.07253183 -36.85851284 100.37996107 -35.5 96.6875 C-34.17698431 93.0768708 -32.85545015 89.46570153 -31.53393555 85.85452271 C-30.65719956 83.45946862 -29.77975817 81.06467265 -28.90161133 78.6701355 C-25.54181381 69.50377559 -22.22298142 60.32314581 -18.92956543 51.13273621 C-16.1726583 43.44605236 -13.34929745 35.80671402 -10.25 28.25 C-6.48180703 18.96054297 -3.2477808 9.48114423 0 0 Z " fill="#D99C01" transform="translate(314,176)"/>
<path d="M0 0 C5.45846499 2.48982613 9.76422834 6.99720668 12.44140625 12.3515625 C13.10344919 20.0138955 13.35321254 27.09518354 8.44140625 33.3515625 C3.04075001 39.14290451 -1.86122285 42.26925153 -9.87109375 42.7265625 C-16.01731149 42.5406265 -21.04866098 40.64157735 -25.609375 36.48046875 C-30.63686339 30.97417194 -33.14346401 26.36536568 -32.9296875 18.8203125 C-31.92279162 12.12180516 -28.72618566 6.86634559 -23.37109375 2.7890625 C-16.5333131 -1.82611259 -7.96314191 -2.01813978 0 0 Z " fill="#FDFCF7" transform="translate(241.55859375,216.6484375)"/>
<path d="M0 0 C6.26183687 2.88424001 11.08819554 6.89514108 14.203125 13.125 C15.08174794 22.48737563 13.88242511 28.62807765 7.953125 35.875 C2.53446635 40.30844799 -2.38731996 42.82112084 -9.50390625 42.44140625 C-16.99596408 41.40757885 -22.68020492 38.75472372 -27.796875 33.125 C-31.54603192 27.92455653 -31.6991194 22.31181873 -30.796875 16.125 C-28.25750428 8.90190106 -23.3889359 3.916819 -16.93359375 -0.0078125 C-11.65116211 -2.15168786 -5.35475437 -1.67523042 0 0 Z " fill="#FDFDF7" transform="translate(198.796875,161.875)"/>
<path d="M0 0 C2.5 1.75 2.5 1.75 4 4 C3.68490637 7.86999608 1.647624 9.69534767 -1.0625 12.3125 C-2.29613281 13.50746094 -2.29613281 13.50746094 -3.5546875 14.7265625 C-5.56533174 16.59588351 -7.59925123 18.40661252 -9.6875 20.1875 C-14.2865579 24.12296638 -18.49391946 28.44001763 -22.7253418 32.76245117 C-26.33335906 36.4239739 -30.06952088 39.85487733 -33.95996094 43.21386719 C-37.43605484 46.25732135 -40.77242769 49.44691829 -44.125 52.625 C-44.85638184 53.31215088 -45.58776367 53.99930176 -46.34130859 54.70727539 C-49.91848011 58.06925828 -53.47067272 61.45022986 -56.96875 64.89453125 C-57.58733887 65.49378418 -58.20592773 66.09303711 -58.84326172 66.71044922 C-59.9972418 67.8290098 -61.14033732 68.9589559 -62.27001953 70.10205078 C-66.01692039 73.70088023 -68.80652858 74.90119436 -74 75 C-76.9375 73.5625 -76.9375 73.5625 -79 72 C-78.48715389 67.86043905 -77.431909 65.94017677 -74.46484375 63.0390625 C-73.73716797 62.31976563 -73.00949219 61.60046875 -72.25976562 60.859375 C-71.49341797 60.12203125 -70.72707031 59.3846875 -69.9375 58.625 C-69.19822266 57.89539063 -68.45894531 57.16578125 -67.69726562 56.4140625 C-63.51332007 52.31430833 -59.2115522 48.39648864 -54.77954102 44.56787109 C-52.41085353 42.48093035 -50.20174213 40.26124867 -48 38 C-44.43640017 34.39280873 -40.78075144 31.00522111 -36.9296875 27.7109375 C-34.15892418 25.25426881 -31.597071 22.60640023 -29 19.96875 C-26.4421272 17.45084396 -23.73815191 15.13353196 -21.015625 12.796875 C-18.16603814 10.25654563 -15.51366305 7.53890811 -12.859375 4.796875 C-8.58076049 0.66207947 -6.14249793 -0.76781224 0 0 Z " fill="#FDFCF7" transform="translate(249,172)"/>
<path d="M0 0 C0.87011719 0.40089844 1.74023438 0.80179687 2.63671875 1.21484375 C10.70207959 5.18424388 16.64158475 10.7875455 23 17 C23.68191406 17.62003906 24.36382812 18.24007812 25.06640625 18.87890625 C30.10964567 23.5611084 33.54598451 29.08371605 37 35 C37.65742188 36.09054688 37.65742188 36.09054688 38.328125 37.203125 C41.0085991 41.99777586 41.39097877 45.52629726 41 51 C39.11621094 50.70068359 39.11621094 50.70068359 37 50 C35.57788505 47.54416284 34.39927991 45.20357999 33.25 42.625 C25.75055735 26.79617168 15.31488162 14.60907155 -1.375 8.1875 C-9.64864124 5.47716925 -17.70040882 4.97274946 -26 8 C-31.81555404 11.22171401 -35.30292316 14.95854788 -38 21 C-40.63209389 33.54631422 -39.41730948 45.62460332 -33.8046875 57.0546875 C-33 59 -33 59 -33 62 C-35.39567496 61.62440689 -36.67656546 61.35164104 -38.34375 59.5390625 C-46.19124016 46.54828488 -48.49510746 32.9872201 -47 18 C-45.94214356 14.08640554 -44.45693584 11.20714525 -42 8 C-41.50371094 7.34902344 -41.00742188 6.69804688 -40.49609375 6.02734375 C-29.88663266 -6.01375546 -13.71820276 -7.06963922 0 0 Z " fill="#F1AD03" transform="translate(208,76)"/>
<path d="M0 0 C3.68889008 1.97672594 6.02422294 3.72957376 8.3125 7.25 C7.466875 7.45753906 6.62125 7.66507813 5.75 7.87890625 C-8.05868065 11.62921838 -13.51765246 18.91763083 -21.6875 30.25 C-22.98967867 32.00769365 -24.3011018 33.75860693 -25.625 35.5 C-26.17027344 36.22703125 -26.71554688 36.9540625 -27.27734375 37.703125 C-27.97537109 38.46882813 -27.97537109 38.46882813 -28.6875 39.25 C-29.3475 39.25 -30.0075 39.25 -30.6875 39.25 C-35.30298473 29.58968311 -37.4522265 20.19125757 -34.75 9.5625 C-26.78834683 -3.22439751 -13.59071919 -6.57989698 0 0 Z " fill="#E2E0E0" transform="translate(209.6875,90.75)"/>
<path d="M0 0 C0 0.99 0 1.98 0 3 C-1.328125 4.26171875 -1.328125 4.26171875 -3.25 5.6875 C-8.08671702 9.73368155 -11.53061012 14.48679522 -15.22583008 19.54199219 C-18.82802541 24.46135389 -22.56078086 29.2318483 -26.4375 33.9375 C-30.94201721 39.42099626 -35.3302703 44.97558257 -39.625 50.625 C-47.70378851 61.25104549 -55.89663357 71.73545851 -64.484375 81.95703125 C-67.13080289 85.15822275 -69.69821335 88.41092638 -72.25 91.6875 C-77.05777091 97.85791967 -82.00509739 103.90459685 -86.9921875 109.93066406 C-90.89744624 114.65133039 -94.75176231 119.40495093 -98.546875 124.21484375 C-100 126 -100 126 -102 128 C-103.32 128 -104.64 128 -106 128 C-104.81411746 120.37646941 -99.90262064 115.6933659 -95 110 C-93.69972066 108.40280649 -92.40770967 106.79883776 -91.125 105.1875 C-90.47660156 104.37539062 -89.82820313 103.56328125 -89.16015625 102.7265625 C-87.09112115 100.11501367 -85.03384929 97.49467168 -82.97949219 94.87158203 C-77.73609403 88.1773056 -72.40828626 81.56231479 -67 75 C-65.60360693 73.29212417 -64.20778832 71.58377851 -62.8125 69.875 C-58.88554476 65.0746239 -54.94389295 60.2864662 -51 55.5 C-44.11031906 47.1373465 -37.23946071 38.75991911 -30.40649414 30.35083008 C-29.30337949 28.99343816 -28.19970216 27.63650332 -27.09545898 26.2800293 C-24.19857487 22.7188269 -21.31551257 19.14759951 -18.453125 15.55859375 C-17.8746582 14.83696045 -17.29619141 14.11532715 -16.70019531 13.37182617 C-15.59616578 11.99400873 -14.49630208 10.61283905 -13.40136719 9.2277832 C-5.98688311 0 -5.98688311 0 0 0 Z " fill="#F6EC7C" transform="translate(213,107)"/>
<path d="M0 0 C1.95993224 7.24519691 1.00810905 14.52318278 -2.375 21.1875 C-4.61890427 25.64995369 -5.5743093 29.78299673 -6.25 34.6875 C-7.46039502 42.79787143 -10.04405191 50.01371303 -13.02709961 57.62841797 C-16.91439038 67.59380696 -20.38080477 77.68261705 -23.8125 87.8125 C-24.9019235 91.02748649 -25.9917452 94.24233717 -27.08203125 97.45703125 C-27.33664124 98.20955673 -27.59125122 98.96208221 -27.85357666 99.7374115 C-29.56354831 104.77355132 -31.35401906 109.77329594 -33.24487305 114.74487305 C-34.04797609 117.14327681 -34.55463905 119.51241563 -35 122 C-34.34 122.33 -33.68 122.66 -33 123 C-33.66 123 -34.32 123 -35 123 C-35 124.32 -35 125.64 -35 127 C-38.87684087 128.19287411 -41.91621923 129 -46 129 C-45.42300613 125.02502446 -44.57605274 121.43533939 -43.19335938 117.66674805 C-42.82206909 116.64675217 -42.45077881 115.62675629 -42.0682373 114.57585144 C-41.66415649 113.48218765 -41.26007568 112.38852386 -40.84375 111.26171875 C-40.42258911 110.1087178 -40.00142822 108.95571686 -39.56750488 107.76777649 C-38.21657964 104.07253183 -36.85851284 100.37996107 -35.5 96.6875 C-34.17698431 93.0768708 -32.85545015 89.46570153 -31.53393555 85.85452271 C-30.65719956 83.45946862 -29.77975817 81.06467265 -28.90161133 78.6701355 C-25.54181381 69.50377559 -22.22298142 60.32314581 -18.92956543 51.13273621 C-16.1726583 43.44605236 -13.34929745 35.80671402 -10.25 28.25 C-6.48180703 18.96054297 -3.2477808 9.48114423 0 0 Z " fill="#E9AA06" transform="translate(314,176)"/>
<path d="M0 0 C6.25277751 0.26607564 11.5625418 2.4518569 16 7 C16.55078125 9.390625 16.55078125 9.390625 16 12 C13.953125 14.5 13.953125 14.5 11.25 17 C7.85383234 20.17770073 4.89726718 23.36813161 2 27 C0.677948 28.24338864 -0.67551618 29.45448187 -2.0625 30.625 C-4.92964671 33.04806902 -4.92964671 33.04806902 -7.49609375 35.7734375 C-7.99238281 36.17820313 -8.48867188 36.58296875 -9 37 C-11.09399414 36.57666016 -11.09399414 36.57666016 -13 36 C-12.59414891 28.09832785 -10.20299252 21.83976402 -7.0625 14.625 C-6.60681641 13.54605469 -6.15113281 12.46710938 -5.68164062 11.35546875 C-2.33108766 3.49663149 -2.33108766 3.49663149 0 0 Z " fill="#FDD409" transform="translate(342,78)"/>
<path d="M0 0 C4.04320612 0.53815003 6.21249772 1.62903892 9.3125 4.25 C10.16199219 4.9615625 11.01148437 5.673125 11.88671875 6.40625 C12.3667334 6.81101562 12.84674805 7.21578125 13.34130859 7.6328125 C15.26787962 9.22080157 17.23446181 10.7508006 19.20703125 12.28125 C20.67969337 13.43749252 22.15234962 14.59374253 23.625 15.75 C24.71035034 16.58192871 24.71035034 16.58192871 25.81762695 17.43066406 C26.48882568 17.96401367 27.16002441 18.49736328 27.8515625 19.046875 C28.76156006 19.75602051 28.76156006 19.75602051 29.68994141 20.47949219 C31 22 31 22 31 26 C19.18001576 27.07454402 5.50361538 22.26329961 -5 17 C-5.66 16.34 -6.32 15.68 -7 15 C-7 8.48072106 -4.12201453 4.85313637 0 0 Z " fill="#FDD108" transform="translate(102,89)"/>
<path d="M0 0 C0.66 0 1.32 0 2 0 C11.32551573 45.24048822 11.32551573 45.24048822 14.50268555 67.375 C14.76239136 69.16744141 14.76239136 69.16744141 15.02734375 70.99609375 C15.16906006 72.01888428 15.31077637 73.0416748 15.45678711 74.09545898 C16.03504771 77.18739894 16.99291279 80.02436014 18 83 C17.97210551 85.78015093 17.47541729 88.2425797 17 91 C14.79733313 88.79733313 14.48669332 87.77429204 13.703125 84.828125 C13.46956299 83.9508374 13.23600098 83.0735498 12.99536133 82.16967773 C12.74939209 81.20618408 12.50342285 80.24269043 12.25 79.25 C11.99049561 78.24590088 11.73099121 77.24180176 11.46362305 76.20727539 C8.40895188 64.08695059 6.05674797 51.82437239 3.71264648 39.55078125 C2.99219093 35.96109111 2.16510513 32.40577774 1.3359375 28.83984375 C-0.03338265 22.51488879 -0.36149864 16.5763341 -0.1875 10.125 C-0.17396484 9.13886719 -0.16042969 8.15273437 -0.14648438 7.13671875 C-0.11183088 4.75717869 -0.06301153 2.3789276 0 0 Z " fill="#FCF58D" transform="translate(315,173)"/>
<path d="M0 0 C13.04104957 0.54043989 22.07281545 8.6119008 30.453125 17.671875 C34.51559651 22.27357221 37.85237599 27.08877445 40.75 32.5 C41.17796875 33.21671875 41.6059375 33.9334375 42.046875 34.671875 C44.76231223 39.47038736 45.14219084 43.00932824 44.75 48.5 C42.86621094 48.20068359 42.86621094 48.20068359 40.75 47.5 C39.32788505 45.04416284 38.14927991 42.70357999 37 40.125 C29.54215709 24.3839749 19.09360378 11.96509434 2.375 5.75 C1.17875 5.3375 -0.0175 4.925 -1.25 4.5 C-2.5965266 3.86039986 -3.93922893 3.210001 -5.25 2.5 C-3.25 0.5 -3.25 0.5 0 0 Z " fill="#EBA701" transform="translate(204.25,78.5)"/>
<path d="M0 0 C2.3645776 1.55789867 2.88775564 2.50389705 3.51171875 5.26171875 C3.56972656 6.06222656 3.62773437 6.86273438 3.6875 7.6875 C3.78611328 8.89986328 3.78611328 8.89986328 3.88671875 10.13671875 C3.92410156 10.75160156 3.96148437 11.36648437 4 12 C-0.36336497 14.98177847 -4.77782501 16.31138322 -9.8125 17.6875 C-10.96588867 18.02491211 -10.96588867 18.02491211 -12.14257812 18.36914062 C-17.25237977 19.78781129 -21.69992986 20.22360615 -27 20 C-26.1194978 13.15679869 -18.34387548 8.87510039 -13.32421875 4.859375 C-5.81543469 -0.74657607 -5.81543469 -0.74657607 0 0 Z " fill="#FDD607" transform="translate(367,115)"/>
<path d="M0 0 C8.98440868 0.02441415 17.91382897 0.53823243 26.875 1.1328125 C27.535 2.4528125 28.195 3.7728125 28.875 5.1328125 C8.92825112 14.65915779 8.92825112 14.65915779 -2.125 14.1328125 C-3.43664842 11.50951566 -3.25762846 9.49582625 -3.25 6.5703125 C-3.25257812 5.57902344 -3.25515625 4.58773437 -3.2578125 3.56640625 C-3.08982572 0.48829548 -3.06326735 0.19145421 0 0 Z " fill="#FDCF08" transform="translate(100.125,128.8671875)"/>
<path d="M0 0 C2.40450178 2.40450178 2.29609139 3.08233942 2.3125 6.375 C2.25687267 9.51541545 2.11914878 10.79645416 0.5 13.5625 C0.005 14.036875 -0.49 14.51125 -1 15 C-7.27643852 14.46078707 -12.58244091 12.97485724 -18.4375 10.6875 C-19.65856445 10.24374023 -19.65856445 10.24374023 -20.90429688 9.79101562 C-21.67708984 9.49259766 -22.44988281 9.19417969 -23.24609375 8.88671875 C-24.29301392 8.48779419 -24.29301392 8.48779419 -25.36108398 8.08081055 C-27 7 -27 7 -27.79711914 4.94458008 C-27.86406982 4.30286865 -27.93102051 3.66115723 -28 3 C-23.53029759 -1.46970241 -5.83707402 -0.67618575 0 0 Z " fill="#FDD412" transform="translate(377,148)"/>
<path d="M0 0 C4.40107122 3.88329814 6.08034601 9.59621631 8 15 C8.24105469 15.66902344 8.48210937 16.33804688 8.73046875 17.02734375 C9.92601597 20.69422348 10.12112042 23.30030262 9 27 C0.76485544 25.93984346 -5.96909307 15.0626446 -10.91796875 9.0078125 C-12 7 -12 7 -11.8125 4.8515625 C-9.71618548 0.07438421 -4.70835264 -0.80142173 0 0 Z " fill="#FDD30D" transform="translate(126,68)"/>
<path d="M0 0 C2.875 1.5625 2.875 1.5625 5 4 C5.76796111 9.18373752 4.81840797 12.62660832 2 17 C-0.66924348 19.74138519 -2.23076718 20.85576885 -6 21.5625 C-10.10389613 20.79301948 -11.53959272 19.32878632 -14 16 C-14.93820053 11.7780976 -13.81863798 9.33212555 -11.6875 5.75 C-8.57768486 0.93118736 -5.80430702 -0.69651684 0 0 Z " fill="#FDCB0A" transform="translate(195,172)"/>
<path d="M0 0 C7.6012416 3.88880226 10.99136579 10.77176367 15.1875 17.9375 C15.89119928 19.11735993 16.59626847 20.29640393 17.30273438 21.47460938 C18.60506455 23.64929012 19.90101368 25.82781526 21.18823242 28.01147461 C22.45203778 30.09613185 23.78990636 32.13688863 25.1809082 34.13891602 C27.30133586 37.47394375 27.68772134 40.09651669 28 44 C23.41159988 39.79467595 20.12754823 35.03989034 16.6875 29.875 C15.53748853 28.1737823 14.38645034 26.47325821 13.234375 24.7734375 C12.68072266 23.95456055 12.12707031 23.13568359 11.55664062 22.29199219 C9.54940704 19.33654851 7.51188042 16.40881165 5.4375 13.5 C4.85871094 12.6853125 4.27992188 11.870625 3.68359375 11.03125 C1.22549255 8.05196135 1.22549255 8.05196135 -2 6 C-5.11196976 5.78846642 -8.14762388 6.03861836 -11.25 6.3125 C-12.51070313 6.4043457 -12.51070313 6.4043457 -13.796875 6.49804688 C-15.86570599 6.65085825 -17.93305508 6.82350162 -20 7 C-18.76489151 4.25783254 -18.11010185 3.08112768 -15.625 1.25 C-10.46257463 -0.53014668 -5.38444721 -1.03207563 0 0 Z " fill="#F9F285" transform="translate(271,95)"/>
<path d="M0 0 C3.875 0.6875 3.875 0.6875 6.375 2.1875 C8.48169026 5.69865044 8.74253838 8.76535171 7.875 12.6875 C6.14672989 16.01649262 4.27947962 18.98526019 0.875 20.6875 C-6.24248879 21.37628924 -6.24248879 21.37628924 -9.6875 18.6875 C-11.23079442 15.46671164 -11.53217157 13.28202718 -10.85546875 9.7578125 C-8.99693857 4.49032056 -5.85307824 0.31726966 0 0 Z " fill="#FDC208" transform="translate(233.125,226.3125)"/>
<path d="M0 0 C0.99 1.32 1.98 2.64 3 4 C-0.65419051 9.91401885 -4.79026483 15.38881084 -9.125 20.8125 C-9.6396582 21.45840088 -10.15431641 22.10430176 -10.68457031 22.76977539 C-15.01669575 28.14572743 -19.20782315 32.17716328 -25 36 C-29.16046381 39.02582055 -29.16046381 39.02582055 -32.0625 43.1875 C-33 45 -33 45 -35.625 46.25 C-36.40875 46.4975 -37.1925 46.745 -38 47 C-30.1258752 36.35929081 -21.96276507 26.00242982 -13.29516602 15.9987793 C-9.56059967 11.68247415 -5.95864902 7.2767119 -2.42578125 2.79296875 C-1 1 -1 1 0 0 Z " fill="#F4E970" transform="translate(174,148)"/>
<path d="M0 0 C3.5710148 -0.21005969 6.49739321 -0.14971266 9.9375 0.875 C12.36952729 3.38072509 12.35058035 4.05306616 12.4375 7.4375 C11.66185259 22.50722112 11.66185259 22.50722112 8 28 C6.10546875 27.3984375 6.10546875 27.3984375 4 26 C1.06908186 17.78437618 0.46011801 8.66291154 0 0 Z " fill="#FED20B" transform="translate(304,75)"/>
<path d="M0 0 C1.49660156 0.75796875 1.49660156 0.75796875 3.0234375 1.53125 C10.80640244 5.61280488 10.80640244 5.61280488 12 8 C8.90563141 7.00421823 5.88448002 5.95228837 2.87890625 4.7109375 C-7.59132127 0.49324868 -19.14497429 -1.51701028 -30.0078125 2.828125 C-35.92667581 6.3098093 -41.84712928 12.40541704 -44 19 C-44.89792033 23.98500596 -45.50708381 28.96058054 -46 34 C-46.33 34 -46.66 34 -47 34 C-47.66591097 22.07279468 -47.16047992 13.53112555 -38.875 4.1875 C-27.68711868 -5.96580305 -13.13989371 -6.84108752 0 0 Z " fill="#F0E378" transform="translate(208,76)"/>
<path d="M0 0 C0.6875 1.5625 0.6875 1.5625 1 4 C0.3486542 5.57694246 -0.31720202 7.14914291 -1.046875 8.69140625 C-2.71634596 12.73508387 -3.71748316 16.98481761 -4.83984375 21.20703125 C-5.72573933 24.10334307 -6.69396547 26.76382572 -7.84960938 29.54931641 C-10.03047856 34.95596661 -11.82438657 40.44298719 -13.56640625 46.00390625 C-14.22280558 48.06331102 -14.87972112 50.12255132 -15.53710938 52.18164062 C-16.55842683 55.39294357 -17.57592682 58.60529459 -18.5847168 61.82055664 C-19.56782352 64.9477205 -20.5658424 68.06979161 -21.56640625 71.19140625 C-21.86648087 72.16106827 -22.16655548 73.13073029 -22.47572327 74.129776 C-22.76289719 75.01837814 -23.05007111 75.90698029 -23.34594727 76.82250977 C-23.593694 77.60731216 -23.84144073 78.39211456 -24.09669495 79.20069885 C-25 81 -25 81 -28 82 C-27.40605797 76.38724783 -25.9425374 71.53428271 -24 66.25 C-21.10110984 58.18507095 -18.36046761 50.07993347 -15.6875 41.9375 C-12.46611182 32.18213763 -9.06380018 22.50927042 -5.5 12.875 C-5.06647217 11.7005835 -4.63294434 10.52616699 -4.1862793 9.31616211 C-1.1305309 1.1305309 -1.1305309 1.1305309 0 0 Z " fill="#FCEEA9" transform="translate(307,216)"/>
<path d="M0 0 C6.50348996 4.31059835 11.42638605 14.12667818 14.02734375 21.34375 C14.38480786 24.16679992 14.29165652 26.48917208 14.02734375 29.34375 C12.14575195 29.04663086 12.14575195 29.04663086 10.02734375 28.34375 C8.58167878 25.86674466 7.38129578 23.50964419 6.21484375 20.90625 C3.38392644 14.88316455 0.31865926 9.48633069 -3.72265625 4.1640625 C-4.97265625 2.34375 -4.97265625 2.34375 -4.97265625 0.34375 C-1.97265625 -0.65625 -1.97265625 -0.65625 0 0 Z " fill="#E4A404" transform="translate(234.97265625,97.65625)"/>
<path d="M0 0 C0.33 0 0.66 0 1 0 C1.17128418 0.97759277 1.34256836 1.95518555 1.51904297 2.96240234 C2.16270027 6.63416298 2.80793411 10.3056452 3.45361328 13.97705078 C3.73137858 15.55770593 4.00873205 17.13843351 4.28564453 18.71923828 C6.32319949 30.38439204 6.32319949 30.38439204 8.59912109 42.00488281 C10.5251865 51.59063587 10.5251865 51.59063587 8 56 C6.62679861 51.67824944 5.30302207 47.3434069 4 43 C3.69191406 42.00742188 3.38382812 41.01484375 3.06640625 39.9921875 C1.07129442 32.98543112 0.7662778 26.47911044 0.9921875 19.25 C0.9988644 16.4724081 0.68851048 14.62790259 0 12 C-0.06743348 9.91765408 -0.08514472 7.83331443 -0.0625 5.75 C-0.04896484 4.13351563 -0.04896484 4.13351563 -0.03515625 2.484375 C-0.02355469 1.66453125 -0.01195312 0.8446875 0 0 Z " fill="#E2CE3A" transform="translate(323,208)"/>
<path d="M0 0 C5.06083516 1.33179873 9.04970809 3.74663773 13.453125 6.46875 C16.87789872 8.52781641 20.40080922 10.26705629 24 12 C24 12.33 24 12.66 24 13 C21.28996573 13.1358035 18.58681059 13.23444624 15.875 13.3125 C15.11445313 13.35439453 14.35390625 13.39628906 13.5703125 13.43945312 C9.4040605 13.52924304 6.80510776 13.28883246 3.5078125 10.60546875 C0.01962905 6.98145261 0.01962905 6.98145261 -0.0625 2.875 C-0.041875 1.92625 -0.02125 0.9775 0 0 Z " fill="#D08F03" transform="translate(177,301)"/>
<path d="M0 0 C0.5534764 2.07553648 1 3.84365964 1 6 C1.99 6.33 2.98 6.66 4 7 C3.8584453 10.04192013 3.71190099 13.08346347 3.5625 16.125 C3.50352539 17.40890625 3.50352539 17.40890625 3.44335938 18.71875 C3.21843598 23.21721792 2.86459117 27.56806207 2 32 C-1.41706146 28.58293854 -2.3370998 24.72868812 -3 20 C-2.68831169 5.37662338 -2.68831169 5.37662338 0 0 Z " fill="#F5AF02" transform="translate(164,93)"/>
<path d="M0 0 C0.66 0 1.32 0 2 0 C4.552535 4.78600312 5.0070893 9.72804012 4 15 C0.69212775 21.49495141 -3.90059538 27.63353179 -11 30 C-18.49272341 30.66821071 -23.88698288 30.55224679 -30 26 C-31.9375 24.25 -31.9375 24.25 -33 23 C-32.67 22.34 -32.34 21.68 -32 21 C-30.53515625 22.26953125 -29.0703125 23.5390625 -27.60546875 24.80859375 C-23.8272106 27.61241063 -19.48678429 27.41284647 -15 27 C-8.75083192 25.84939304 -5.03068006 23.70552807 -1.09375 18.71875 C1.05648387 15.33981106 1.13546961 12.39469325 1.125 8.5 C1.12757813 7.5409375 1.13015625 6.581875 1.1328125 5.59375 C1.10992972 2.88428848 1.10992972 2.88428848 0 0 Z " fill="#E3DE89" transform="translate(266,122)"/>
<path d="M0 0 C0.66 0 1.32 0 2 0 C2.88395466 4.19697558 3.75642035 8.39612798 4.6184082 12.59765625 C4.91312593 14.02604081 5.21095026 15.45378811 5.51196289 16.88085938 C5.94459109 18.93459192 6.36592237 20.99037197 6.78515625 23.046875 C7.04176025 24.28276367 7.29836426 25.51865234 7.56274414 26.79199219 C7.95597515 29.67700359 7.98944135 31.31059858 7 34 C6.34 33.67 5.68 33.34 5 33 C4.1484375 30.27734375 4.1484375 30.27734375 3.375 26.9375 C3.11460937 25.83277344 2.85421875 24.72804687 2.5859375 23.58984375 C2.39257812 22.73519531 2.19921875 21.88054687 2 21 C1.34 21.33 0.68 21.66 0 22 C0 14.74 0 7.48 0 0 Z " fill="#ECDE5A" transform="translate(315,173)"/>
<path d="M0 0 C1.15029605 3.61139458 1.03284666 6.919234 0.9375 10.6875 C0.89180569 19.51564065 2.31339056 26.14916763 6.1953125 34.0546875 C7 36 7 36 7 39 C4.40478472 38.62925496 3.27596886 38.32506306 1.55078125 36.29296875 C1.14214844 35.59816406 0.73351562 34.90335938 0.3125 34.1875 C-0.10386719 33.50042969 -0.52023438 32.81335938 -0.94921875 32.10546875 C-3.18224854 27.63110794 -2.88332482 24.89896595 -2 20 C-1.7037583 16.34370729 -1.56263669 12.67774795 -1.39453125 9.01367188 C-1.2301338 5.8022528 -1.02231466 3.06694397 0 0 Z " fill="#E5A102" transform="translate(168,99)"/>
<path d="M0 0 C-0.125 1.75 -0.125 1.75 -1 4 C-2.37951324 4.90845994 -3.76424492 5.81011011 -5.17578125 6.66796875 C-11.2732097 11.12026661 -16.34456251 17.19684422 -17.6328125 24.671875 C-17.8042689 26.03033722 -17.96814974 27.38977396 -18.125 28.75 C-18.25455078 29.79607422 -18.25455078 29.79607422 -18.38671875 30.86328125 C-18.59771846 32.57472332 -18.79975501 34.28726629 -19 36 C-19.33 36 -19.66 36 -20 36 C-20.61163162 25.04499815 -20.58083763 16.82679208 -13.3203125 7.9453125 C-9.78478231 4.15836683 -5.48397477 0 0 0 Z " fill="#E6DE94" transform="translate(181,74)"/>
<path d="M0 0 C2.5569427 8.30022939 0.23925906 16.64032987 -3.55078125 24.13671875 C-5.26062198 26.3350854 -6.28459023 26.65840261 -9 27 C-6.75424696 17.70179445 -3.45076489 8.90051656 0 0 Z " fill="#F5B200" transform="translate(314,176)"/>
<path d="M0 0 C0 4.38274199 -2.62589417 6.78069843 -5.25 10.0625 C-5.98669922 11.01866211 -5.98669922 11.01866211 -6.73828125 11.99414062 C-7.22167969 12.60580078 -7.70507812 13.21746094 -8.203125 13.84765625 C-8.64301758 14.40461182 -9.08291016 14.96156738 -9.53613281 15.53540039 C-11.25422079 17.25434798 -12.71948549 18.16098975 -15 19 C-15.99 18.67 -16.98 18.34 -18 18 C-18 17.34 -18 16.68 -18 16 C-17.236875 15.566875 -16.47375 15.13375 -15.6875 14.6875 C-12.88335084 13.21961344 -12.88335084 13.21961344 -11.65625 10.6640625 C-9.7449314 7.58972456 -7.67689193 5.88229382 -4.8125 3.6875 C-3.46091797 2.64142578 -3.46091797 2.64142578 -2.08203125 1.57421875 C-1.39496094 1.05472656 -0.70789063 0.53523437 0 0 Z " fill="#FDF380" transform="translate(154,179)"/>
<path d="M0 0 C1.4921875 1.05859375 1.4921875 1.05859375 3 3 C3.2578125 6.28515625 3.2578125 6.28515625 3.125 10.0625 C2.76956823 14.69504738 2.76956823 14.69504738 4 19 C1.3354186 17.98929671 0.04804128 17.0600516 -1.75 14.8125 C-3.32923797 11.25921457 -3.41323619 8.85687108 -3 5 C-1.5 2.0625 -1.5 2.0625 0 0 Z " fill="#DFE0E1" transform="translate(239,124)"/>
<path d="M0 0 C1.98 0 3.96 0 6 0 C9.00559652 5.00932754 9.29341888 8.32723489 9 14 C7.171875 13.83984375 7.171875 13.83984375 5 13 C3.515625 10.56640625 3.515625 10.56640625 2.25 7.5625 C1.82203125 6.57378906 1.3940625 5.58507812 0.953125 4.56640625 C0 2 0 2 0 0 Z " fill="#D08901" transform="translate(240,113)"/>
<path d="M0 0 C0.66 0.66 1.32 1.32 2 2 C-2.29 2.66 -6.58 3.32 -11 4 C-10.01 4.66 -9.02 5.32 -8 6 C-12.0527516 6.98248524 -15.83861737 7.08159574 -20 7 C-19.02903542 4.18420272 -18.0441061 3.03249923 -15.625 1.25 C-10.4835793 -0.52290369 -5.39493785 -0.62187158 0 0 Z " fill="#F9EB70" transform="translate(271,95)"/>
<path d="M0 0 C4.97053305 4.57411017 10.00512683 11.38256747 10.9375 18.1875 C10.958125 19.115625 10.97875 20.04375 11 21 C4.35324766 14.92296929 0.48885762 9.1253422 0 0 Z " fill="#ECDE5C" transform="translate(288,118)"/>
<path d="M0 0 C0.33 0.66 0.66 1.32 1 2 C3.02463255 2.65213292 3.02463255 2.65213292 5 3 C2.65706352 7.77264839 2.65706352 7.77264839 1 10 C-1.4375 10.8125 -1.4375 10.8125 -4 11 C-5.67780783 11.638109 -7.34639437 12.30156557 -9 13 C-8.06398754 11.58235006 -7.1261208 10.16592432 -6.1875 8.75 C-5.66542969 7.96109375 -5.14335937 7.1721875 -4.60546875 6.359375 C-3.12865878 4.18907519 -1.59310127 2.08586232 0 0 Z " fill="#F4EA6E" transform="translate(135,195)"/>
<path d="M0 0 C1.40620961 4.45155548 0.13601757 7.88012495 -1.25 12.1875 C-1.57677734 13.29254883 -1.57677734 13.29254883 -1.91015625 14.41992188 C-2.50625937 16.31455372 -3.24448763 18.16310866 -4 20 C-4.99 20.33 -5.98 20.66 -7 21 C-6.37741748 14.15159225 -4.96380499 4.96380499 0 0 Z " fill="#FCF3C2" transform="translate(286,277)"/>
<path d="M0 0 C0.66 0 1.32 0 2 0 C4.77900436 8.49829459 6.65895285 16.03091948 6 25 C3.69367587 22.69367587 3.53939612 21.67218529 2.9296875 18.53515625 C2.75566406 17.65279297 2.58164062 16.77042969 2.40234375 15.86132812 C2.14130859 14.4759082 2.14130859 14.4759082 1.875 13.0625 C1.60236328 11.68288086 1.60236328 11.68288086 1.32421875 10.27539062 C0 3.45018797 0 3.45018797 0 0 Z " fill="#FDF79F" transform="translate(319,210)"/>
<path d="M0 0 C0.89203125 0.00902344 1.7840625 0.01804687 2.703125 0.02734375 C3.37859375 0.03894531 4.0540625 0.05054687 4.75 0.0625 C5.875 2.375 5.875 2.375 6.75 5.0625 C5.76 6.5475 5.76 6.5475 4.75 8.0625 C4.13125 7.423125 3.5125 6.78375 2.875 6.125 C-1.38332898 3.31450287 -5.24401138 3.25690733 -10.25 3.0625 C-9.25 1.0625 -9.25 1.0625 -7.515625 0.44140625 C-4.96855716 0.01543111 -2.58143831 -0.03396629 0 0 Z " fill="#FDF790" transform="translate(269.25,96.9375)"/>
<path d="M0 0 C2.79486926 0.28912441 3.79651281 0.75738066 5.625 2.9375 C7.52096596 7.16033327 8.24922081 11.45116138 9 16 C0.23684211 7.72368421 0.23684211 7.72368421 -0.25 2.125 C-0.1675 1.42375 -0.085 0.7225 0 0 Z " fill="#F2E978" transform="translate(281,110)"/>
<path d="M0 0 C-1.39176612 4.42834676 -3.43721744 7.03101453 -7 10 C-8.32 10 -9.64 10 -11 10 C-10.375 6.6875 -10.375 6.6875 -9 3 C-5.76397989 0.86560376 -3.87851373 0 0 0 Z " fill="#FBF190" transform="translate(118,225)"/>
<path d="M0 0 C3.40785862 3.40785862 3.6609331 8.27153477 4.6875 12.875 C4.92533203 13.88175781 5.16316406 14.88851562 5.40820312 15.92578125 C5.62798828 16.89644531 5.84777344 17.86710937 6.07421875 18.8671875 C6.27619873 19.75519043 6.47817871 20.64319336 6.6862793 21.55810547 C7.00593082 24.04616348 6.78431719 25.63915376 6 28 C-0.32714286 7.85142857 -0.32714286 7.85142857 0 0 Z " fill="#FBF7B2" transform="translate(325,236)"/>
<path d="M0 0 C1.2375 -0.01417969 2.475 -0.02835937 3.75 -0.04296875 C7 0.1875 7 0.1875 10 2.1875 C5.38 2.1875 0.76 2.1875 -4 2.1875 C-0.7 2.5175 2.6 2.8475 6 3.1875 C6 3.5175 6 3.8475 6 4.1875 C0.39 4.8475 -5.22 5.5075 -11 6.1875 C-10.67 4.5375 -10.34 2.8875 -10 1.1875 C-6.50953395 0.02401132 -3.67722983 0.01915224 0 0 Z " fill="#C5BF65" transform="translate(191,71.8125)"/>
<path d="M0 0 C5.92483092 1.22786758 8.88593054 3.20918155 12.9375 7.625 C13.67709961 8.3984375 13.67709961 8.3984375 14.43164062 9.1875 C15.63295314 10.44712865 16.81820737 11.7220398 18 13 C17 15 17 15 15.1875 15.875 C13 16 13 16 10.75 14.1875 C9 12 9 12 9 10 C9.66 10 10.32 10 11 10 C11.33 10.66 11.66 11.32 12 12 C12.33 11.67 12.66 11.34 13 11 C11.58829091 9.70291686 10.17041804 8.41254022 8.75 7.125 C7.96109375 6.40570313 7.1721875 5.68640625 6.359375 4.9453125 C4.27973832 3.23064517 2.45580733 2.07019127 0 1 C0 0.67 0 0.34 0 0 Z " fill="#F4BF07" transform="translate(216,83)"/>
<path d="M0 0 C2.46800047 1.15173355 4.04783565 2.04783565 6 4 C6.125 7.625 6.125 7.625 6 11 C5.01 11.33 4.02 11.66 3 12 C2.49440092 10.56445975 1.9957251 9.1264798 1.5 7.6875 C1.2215625 6.88699219 0.943125 6.08648437 0.65625 5.26171875 C0 3 0 3 0 0 Z " fill="#F1F1F2" transform="translate(257,123)"/>
<path d="M0 0 C0.95310059 0.01047363 1.90620117 0.02094727 2.88818359 0.03173828 C4.43505859 0.04140625 4.43505859 0.04140625 6.01318359 0.05126953 C7.63353516 0.07640625 7.63353516 0.07640625 9.28662109 0.10205078 C10.37458984 0.11107422 11.46255859 0.12009766 12.58349609 0.12939453 C15.27642261 0.15301669 17.96891365 0.18595522 20.66162109 0.22705078 C20.66162109 0.88705078 20.66162109 1.54705078 20.66162109 2.22705078 C21.98162109 2.55705078 23.30162109 2.88705078 24.66162109 3.22705078 C15.09162109 2.89705078 5.52162109 2.56705078 -4.33837891 2.22705078 C-2.33837891 0.22705078 -2.33837891 0.22705078 0 0 Z " fill="#D0D0D0" transform="translate(287.33837890625,311.77294921875)"/>
<path d="M0 0 C0.82514784 2.83384108 1.07936233 5.16935251 0.87890625 8.109375 C0.83056641 8.86347656 0.78222656 9.61757812 0.73242188 10.39453125 C0.64831055 11.56048828 0.64831055 11.56048828 0.5625 12.75 C0.51029297 13.54277344 0.45808594 14.33554688 0.40429688 15.15234375 C0.27510676 17.10193997 0.13830035 19.05102886 0 21 C-0.66 21.33 -1.32 21.66 -2 22 C-3.20365583 17.6176756 -2.78567356 13.73558075 -2.125 9.3125 C-2.03347656 8.63638672 -1.94195312 7.96027344 -1.84765625 7.26367188 C-1.14487257 2.28974515 -1.14487257 2.28974515 0 0 Z " fill="#F4CC1A" transform="translate(164,93)"/>
<path d="M0 0 C2 2 2 2 2.25 4.875 C2.00739956 7.90750547 1.79927629 9.570977 0 12 C-2.078125 12.60546875 -2.078125 12.60546875 -4 13 C-3.52343588 11.20763933 -3.04366502 9.41613103 -2.5625 7.625 C-2.29566406 6.62726563 -2.02882813 5.62953125 -1.75390625 4.6015625 C-1 2 -1 2 0 0 Z " fill="#D99A01" transform="translate(309,190)"/>
<path d="M0 0 C1.14713529 3.62064576 1.06599217 6.97194853 1 10.75 C0.95651972 15.95676401 1.17819435 20.86371469 2 26 C1.01 26 0.02 26 -1 26 C-2.07284497 20.96403367 -1.97621545 16.40073381 -1.625 11.3125 C-1.58117187 10.55388672 -1.53734375 9.79527344 -1.4921875 9.01367188 C-1.28914137 5.81851534 -1.01680536 3.05041608 0 0 Z " fill="#AF7501" transform="translate(168,99)"/>
<path d="M0 0 C1.875 1.1875 1.875 1.1875 2.875 3.1875 C1.555 4.5075 0.235 5.8275 -1.125 7.1875 C-5.125 2.4375 -5.125 2.4375 -5.125 0.1875 C-2.125 -0.8125 -2.125 -0.8125 0 0 Z " fill="#E6AA01" transform="translate(235.125,97.8125)"/>
<path d="M0 0 C0 3 0 3 -1.75 5.04296875 C-2.4925 5.75066406 -3.235 6.45835937 -4 7.1875 C-4.7425 7.90292969 -5.485 8.61835938 -6.25 9.35546875 C-6.8275 9.89816406 -7.405 10.44085938 -8 11 C-6.35 11.33 -4.7 11.66 -3 12 C-3 12.33 -3 12.66 -3 13 C-5.64 13 -8.28 13 -11 13 C-10.53730015 8.70772058 -8.09840542 6.97077935 -4.9375 4.25 C-4.01839844 3.45078125 -3.09929687 2.6515625 -2.15234375 1.828125 C-1.44207031 1.22484375 -0.73179687 0.6215625 0 0 Z " fill="#FDE132" transform="translate(351,122)"/>
<path d="M0 0 C2.63032833 0.45091343 4.96251867 0.98462304 7.4375 2 C10.27949909 3.10907282 12.98593192 3.57943236 16 4 C16 4.33 16 4.66 16 5 C14.08404032 5.08133791 12.16708068 5.13934367 10.25 5.1875 C8.64898437 5.23970703 8.64898437 5.23970703 7.015625 5.29296875 C3.68511459 4.9694088 2.34242876 4.34811426 0 2 C0 1.34 0 0.68 0 0 Z " fill="#F6BE05" transform="translate(180,309)"/>
<path d="M0 0 C0.66 0 1.32 0 2 0 C3.26305335 5.07476794 4.27036084 9.72796354 4 15 C3.34 15 2.68 15 2 15 C0.53329887 9.77487721 -0.22577402 5.4185766 0 0 Z " fill="#DED037" transform="translate(315,173)"/>
<path d="M0 0 C0.66 0.66 1.32 1.32 2 2 C1.828125 4.05859375 1.828125 4.05859375 1.25 6.4375 C0.97929687 7.61119141 0.97929687 7.61119141 0.703125 8.80859375 C0 11 0 11 -2 14 C-2.66 13.67 -3.32 13.34 -4 13 C-3.52140759 11.39566191 -3.04210442 9.79153584 -2.5625 8.1875 C-2.29566406 7.29417969 -2.02882813 6.40085937 -1.75390625 5.48046875 C-1.19612127 3.64526945 -0.60655425 1.81966274 0 0 Z " fill="#FCEA96" transform="translate(289,265)"/>
<path d="M0 0 C0.33 0.66 0.66 1.32 1 2 C-2.25 8.5 -2.25 8.5 -6 11 C-7.19232613 13.05003955 -7.19232613 13.05003955 -8 15 C-8.99 14.67 -9.98 14.34 -11 14 C-7.37 9.38 -3.74 4.76 0 0 Z " fill="#E4DB58" transform="translate(125,208)"/>
<path d="M0 0 C0.33 0 0.66 0 1 0 C2.40454548 6.11980533 3.23268915 11.71739294 3 18 C0.12563833 15.12563833 0.03237445 12.99972292 -0.09765625 8.984375 C-0.08605469 7.91703125 -0.07445312 6.8496875 -0.0625 5.75 C-0.04896484 4.13351563 -0.04896484 4.13351563 -0.03515625 2.484375 C-0.02355469 1.66453125 -0.01195312 0.8446875 0 0 Z " fill="#D0C032" transform="translate(323,208)"/>
<path d="M0 0 C-0.0625 1.75 -0.0625 1.75 -1 4 C-3.24164322 5.59501537 -5.53566643 6.74543018 -8 8 C-8.33 6.68 -8.66 5.36 -9 4 C-2.25 0 -2.25 0 0 0 Z " fill="#EBE285" transform="translate(181,74)"/>
<path d="M0 0 C2.44839588 3.67259383 4 6.54648201 4 11 C2.125 10.75 2.125 10.75 0 10 C-1.25 7.9375 -1.25 7.9375 -2 6 C-1.01 6 -0.02 6 1 6 C0.67 4.02 0.34 2.04 0 0 Z " fill="#C37E00" transform="translate(171,127)"/>
<path d="M0 0 C-0.75 2.4375 -0.75 2.4375 -2 5 C-4.125 5.8125 -4.125 5.8125 -6 6 C-6.33 5.01 -6.66 4.02 -7 3 C-5.40442685 -0.19114631 -3.35905282 0 0 0 Z " fill="#F9F18A" transform="translate(199,123)"/>
<path d="M0 0 C-1 3 -1 3 -2.75 4.125 C-5.15292138 5.05946943 -7.46046361 5.57674394 -10 6 C-5.38461538 0 -5.38461538 0 0 0 Z " fill="#F1E86B" transform="translate(213,107)"/>
<path d="M0 0 C-1.62170379 1.00533667 -3.24747237 2.00411907 -4.875 3 C-6.23238281 3.8353125 -6.23238281 3.8353125 -7.6171875 4.6875 C-10 6 -10 6 -12 6 C-10.9200311 2.86809018 -9.99049526 1.99400788 -7.125 0.1875 C-3.8542803 -1.05537349 -3.15139514 -1.00271664 0 0 Z " fill="#E4DC6D" transform="translate(263,96)"/>
<path d="M0 0 C-0.35049575 3.24208567 -0.56221181 4.61527704 -3.0625 6.8125 C-3.701875 7.204375 -4.34125 7.59625 -5 8 C-5.75 6.25 -5.75 6.25 -6 4 C-2.77777778 0 -2.77777778 0 0 0 Z " fill="#F8F19F" transform="translate(173,79)"/>
<path d="M0 0 C-1.47692308 5.66153846 -1.47692308 5.66153846 -4.125 7.375 C-5.053125 7.684375 -5.053125 7.684375 -6 8 C-5.62403791 5.21788056 -5.32681541 3.4120716 -3.5625 1.1875 C-2 0 -2 0 0 0 Z " fill="#F1B401" transform="translate(196,131)"/>
<path d="M0 0 C0.66 0 1.32 0 2 0 C0.6062718 4.43458973 -1.60582235 6.87378374 -5 10 C-5.33 9.34 -5.66 8.68 -6 8 C-5.04956626 6.66102417 -4.08940853 5.32894573 -3.125 4 C-2.59132812 3.2575 -2.05765625 2.515 -1.5078125 1.75 C-1.01023438 1.1725 -0.51265625 0.595 0 0 Z " fill="#FDDE0F" transform="translate(205,124)"/>
<path d="M0 0 C1.32 0.33 2.64 0.66 4 1 C4.66 3.97 5.32 6.94 6 10 C2.46413986 6.82679218 0.41421969 4.83256305 0 0 Z " fill="#FDF79B" transform="translate(284,116)"/>
<path d="M0 0 C1.46726798 3.81489674 0.43336419 6.29011622 -1 10 C-1.99 9.67 -2.98 9.34 -4 9 C-2.25 2.25 -2.25 2.25 0 0 Z " fill="#FEF1AA" transform="translate(286,277)"/>
<path d="M0 0 C0.66 0 1.32 0 2 0 C2.33 2.31 2.66 4.62 3 7 C3.99 7.33 4.98 7.66 6 8 C4.68 8.33 3.36 8.66 2 9 C-0.29013653 5.5647952 -0.17842973 4.014669 0 0 Z " fill="#D9A708" transform="translate(177,301)"/>
<path d="M0 0 C0.99 0.495 0.99 0.495 2 1 C2 1.66 2 2.32 2 3 C2.66 3 3.32 3 4 3 C5.6875 5.3125 5.6875 5.3125 7 8 C6.67 8.99 6.34 9.98 6 11 C4.99126984 9.73608512 3.99328178 8.46359117 3 7.1875 C2.443125 6.47980469 1.88625 5.77210938 1.3125 5.04296875 C0 3 0 3 0 0 Z " fill="#FDF99E" transform="translate(292,128)"/>
<path d="M0 0 C0.66 0.33 1.32 0.66 2 1 C0.6905332 2.33631236 -0.62265485 3.66897925 -1.9375 5 C-2.66839844 5.7425 -3.39929688 6.485 -4.15234375 7.25 C-6 9 -6 9 -7 9 C-7 7.35 -7 5.7 -7 4 C-5.824375 3.566875 -5.824375 3.566875 -4.625 3.125 C-1.90328368 2.15087746 -1.90328368 2.15087746 0 0 Z " fill="#FDFA95" transform="translate(210,109)"/>
<path d="M0 0 C1.60156595 4.00391487 0.4087561 7.07031192 -1 11 C-1.99 11.495 -1.99 11.495 -3 12 C-2.49202991 7.6822542 -1.80317221 3.96697886 0 0 Z " fill="#D19A02" transform="translate(314,176)"/>
<path d="M0 0 C1.5625 1.8125 1.5625 1.8125 3 4 C2.67 4.99 2.34 5.98 2 7 C0.35 6.67 -1.3 6.34 -3 6 C-2.01 4.02 -1.02 2.04 0 0 Z " fill="#D99603" transform="translate(242,107)"/>
<path d="M0 0 C3.125 -0.1875 3.125 -0.1875 6 0 C5.67 1.32 5.34 2.64 5 4 C2.69 3.67 0.38 3.34 -2 3 C-1.34 2.01 -0.68 1.02 0 0 Z " fill="#DD9800" transform="translate(201,79)"/>
<path d="M0 0 C3.68754757 0.49831724 5.60490662 1.10067643 8 4 C5.36 3.67 2.72 3.34 0 3 C0 2.01 0 1.02 0 0 Z " fill="#BE8300" transform="translate(193,310)"/>
<path d="M0 0 C3.93846154 3.32307692 3.93846154 3.32307692 4.25 6.75 C4.1675 7.4925 4.085 8.235 4 9 C3.01 8.34 2.02 7.68 1 7 C0.3125 3.375 0.3125 3.375 0 0 Z " fill="#EFDA4C" transform="translate(298,134)"/>
<path d="M0 0 C2.64 0 5.28 0 8 0 C8.66 1.32 9.32 2.64 10 4 C9.01 4.33 8.02 4.66 7 5 C7 3.68 7 2.36 7 1 C4.69 1 2.38 1 0 1 C0 0.67 0 0.34 0 0 Z " fill="#FEE450" transform="translate(119,130)"/>
<path d="M0 0 C2.475 0.495 2.475 0.495 5 1 C5.33 2.32 5.66 3.64 6 5 C3.5625 4.1875 3.5625 4.1875 1 3 C0.67 2.01 0.34 1.02 0 0 Z " fill="#ECBD11" transform="translate(180,309)"/>
<path d="M0 0 C-2.1385485 2.1385485 -3.13275314 2.42655063 -6 3 C-6 2.34 -6 1.68 -6 1 C-6.99 0.67 -7.98 0.34 -9 0 C-5.67465243 -1.10844919 -3.37817425 -0.84454356 0 0 Z " fill="#DDD777" transform="translate(260,149)"/>
<path d="M0 0 C0.33 0 0.66 0 1 0 C1 2.64 1 5.28 1 8 C-0.32 7.67 -1.64 7.34 -3 7 C-3 6.34 -3 5.68 -3 5 C-2.34 4.67 -1.68 4.34 -1 4 C-0.34786708 1.97536745 -0.34786708 1.97536745 0 0 Z " fill="#AA6900" transform="translate(248,119)"/>
<path d="M0 0 C2 3 2 3 1.625 6.1875 C1.41875 7.115625 1.2125 8.04375 1 9 C0.01 9 -0.98 9 -2 9 C-1.34 6.03 -0.68 3.06 0 0 Z " fill="#E7A905" transform="translate(164,109)"/>
<path d="M0 0 C4.875 4.625 4.875 4.625 6 8 C5.34 8 4.68 8 4 8 C4 7.34 4 6.68 4 6 C3.01 6 2.02 6 1 6 C0.67 4.02 0.34 2.04 0 0 Z " fill="#E6D861" transform="translate(275,98)"/>
</svg>
